<svg xmlns="http://www.w3.org/2000/svg" viewBox="0 0 640 360" role="img" aria-labelledby="title desc">
  <title id="title">Flood stop check move sequence</title>
  <desc id="desc">Diagram showing a rising water line, elevated supplies, and an exit route.</desc>
  <rect width="640" height="360" rx="28" fill="#F6EFE2"/>
  <rect x="48" y="42" width="544" height="276" rx="24" fill="#FFF8EB" stroke="#D8C7A0" stroke-width="4"/>
  <rect x="92" y="82" width="456" height="196" rx="20" fill="#FFF8EB" stroke="#214C40" stroke-width="4"/>
  <path d="M92 214c28 12 42 12 70 0s42-12 70 0 42 12 70 0 42-12 70 0 42 12 70 0 42-12 76 0v64H92z" fill="#7AB9E8"/>
  <path d="M130 110h120v80H130z" fill="#E9E1CD" stroke="#214C40" stroke-width="4"/>
  <path d="M146 126h88v48" fill="none" stroke="#214C40" stroke-width="6" stroke-linecap="round"/>
  <path d="M300 132h76v54" fill="none" stroke="#214C40" stroke-width="6" stroke-linecap="round"/>
  <rect x="286" y="106" width="104" height="32" rx="10" fill="#214C40"/>
  <text x="338" y="128" font-family="Helvetica, Arial, sans-serif" font-size="18" fill="#FFF8EB" text-anchor="middle">Lift supplies</text>
  <path d="M434 176l54-44" fill="none" stroke="#214C40" stroke-width="8" stroke-linecap="round"/>
  <path d="M472 126h50" fill="none" stroke="#214C40" stroke-width="8" stroke-linecap="round"/>
  <path d="M504 112l26 14-26 14" fill="none" stroke="#214C40" stroke-width="8" stroke-linecap="round" stroke-linejoin="round"/>
  <text x="92" y="324" font-family="Helvetica, Arial, sans-serif" font-size="24" font-weight="700" fill="#214C40">Stop. Check hazards. Move essentials toward the safest exit.</text>
</svg>
